<svg width="18" height="16" viewBox="0 0 18 16" fill="none" xmlns="http://www.w3.org/2000/svg">
<path d="M10.9687 0.575001H7.03123C3.43123 0.575001 0.506226 3.41563 0.506226 6.90313C0.506226 10.3906 2.75623 12.8375 8.26873 15.3125C8.40935 15.3688 8.52185 15.3969 8.66248 15.3969C8.85935 15.3969 9.0281 15.3406 9.19685 15.2281C9.4781 15.0594 9.64685 14.75 9.64685 14.4125V13.2031H10.9687C14.5687 13.2031 17.5219 10.3625 17.5219 6.875C17.5219 3.3875 14.5687 0.575001 10.9687 0.575001ZM10.9687 11.9938H9.33748C8.8031 11.9938 8.3531 12.4438 8.3531 12.9781V14.0188C3.59998 11.825 1.74373 9.8 1.74373 6.93125C1.74373 4.14688 4.10623 1.86875 7.03123 1.86875H10.9687C13.8656 1.86875 16.2562 4.14688 16.2562 6.93125C16.2562 9.71563 13.8656 11.9938 10.9687 11.9938Z" fill="#64748B"/>
<path d="M5.42812 6.28437C5.0625 6.28437 4.78125 6.56562 4.78125 6.93125C4.78125 7.29687 5.0625 7.57812 5.42812 7.57812C5.79375 7.57812 6.075 7.29687 6.075 6.93125C6.075 6.56562 5.79375 6.28437 5.42812 6.28437Z" fill="#64748B"/>
<path d="M9.00002 6.28437C8.6344 6.28437 8.35315 6.56562 8.35315 6.93125C8.35315 7.29687 8.6344 7.57812 9.00002 7.57812C9.33752 7.57812 9.6469 7.29687 9.6469 6.93125C9.6469 6.56562 9.33752 6.28437 9.00002 6.28437Z" fill="#64748B"/>
<path d="M12.5718 6.28437C12.2062 6.28437 11.9249 6.56562 11.9249 6.93125C11.9249 7.29687 12.2062 7.57812 12.5718 7.57812C12.9374 7.57812 13.2187 7.29687 13.2187 6.93125C13.2187 6.56562 12.9093 6.28437 12.5718 6.28437Z" fill="#64748B"/>
</svg>
