<svg width="16" height="18" viewBox="0 0 16 18" fill="none" xmlns="http://www.w3.org/2000/svg">
<path d="M15.2 14.9344L14.6375 14.0625C14.525 13.8937 14.4688 13.725 14.4688 13.5281V7.67812C14.4688 6.01875 13.7657 4.47187 12.4719 3.31875C11.4313 2.39062 10.0813 1.8 8.6469 1.6875V1.125C8.6469 0.7875 8.36565 0.478125 8.00002 0.478125C7.66252 0.478125 7.35315 0.759375 7.35315 1.125V1.65937C7.2969 1.65937 7.24065 1.65937 7.1844 1.6875C3.9219 2.05312 1.47502 4.66875 1.47502 7.79062V13.5281C1.4469 13.8094 1.39065 13.95 1.3344 14.0344L0.800024 14.9344C0.631274 15.2156 0.631274 15.5531 0.800024 15.8344C0.968774 16.0875 1.25002 16.2562 1.5594 16.2562H7.38127V16.875C7.38127 17.2125 7.66252 17.5219 8.02815 17.5219C8.36565 17.5219 8.67503 17.2406 8.67503 16.875V16.2562H14.4688C14.7782 16.2562 15.0594 16.0875 15.2282 15.8344C15.3969 15.5531 15.3969 15.2156 15.2 14.9344ZM2.2344 14.9906L2.43127 14.6531C2.60002 14.3719 2.6844 14.0344 2.74065 13.6406V7.79062C2.74065 5.31562 4.7094 3.23437 7.32503 2.95312C8.92815 2.78437 10.5031 3.2625 11.6563 4.275C12.6688 5.175 13.2313 6.38437 13.2313 7.67812V13.5281C13.2313 13.95 13.3438 14.3438 13.5969 14.7375L13.7657 14.9906H2.2344Z" fill="#64748B"/>
</svg>
